<svg height="512" viewBox="0 0 512 512" width="512" xmlns="http://www.w3.org/2000/svg"><path d="m432 256h-352v128h352c30.928 0 56-28.654 56-64s-25.072-64-56-64z" fill="#836e59"/><path d="m176 296h-48a8 8 0 0 1 0-16h48a8 8 0 0 1 0 16z" fill="#74624f"/><path d="m168 328h-32a8 8 0 0 1 0-16h32a8 8 0 0 1 0 16z" fill="#74624f"/><path d="m152 360h-24a8 8 0 0 1 0-16h24a8 8 0 0 1 0 16z" fill="#74624f"/><path d="m275.045 256h-195.045v16h232c-9.866-9.929-22.776-16-36.955-16z" fill="#7a6753"/><ellipse cx="80" cy="320" fill="#e0a981" rx="56" ry="64"/><path d="m80 360a26.564 26.564 0 0 1 -11.414-2.586 8 8 0 0 1 6.828-14.469 10.679 10.679 0 0 0 4.586 1.055c8.672 0 16-10.992 16-24a33.826 33.826 0 0 0 -.617-6.488 8 8 0 0 1 15.719-3.024 50.837 50.837 0 0 1 .898 9.512c0 22.055-14.352 40-32 40z" fill="#be906e"/><path d="m87.992 297.82a7.986 7.986 0 0 1 -3.406-.765 10.691 10.691 0 0 0 -4.586-1.055 8 8 0 0 1 0-16 26.561 26.561 0 0 1 11.414 2.586 8 8 0 0 1 -3.422 15.234z" fill="#be906e"/><path d="m56.75 336a8.012 8.012 0 0 1 -7.852-6.488 50.829 50.829 0 0 1 -.898-9.512 48.628 48.628 0 0 1 3.867-19.18 8 8 0 0 1 14.688 6.36 32.453 32.453 0 0 0 -2.555 12.82 33.837 33.837 0 0 0 .617 6.489 8.008 8.008 0 0 1 -6.343 9.367 8.148 8.148 0 0 1 -1.524.144z" fill="#be906e"/><path d="m432 256h-208v128h208c30.928 0 56-28.654 56-64s-25.072-64-56-64z" fill="#8e7760"/><path d="m368 128h-216v128h216c30.928 0 56-28.654 56-64s-25.072-64-56-64z" fill="#8e7760"/><g fill="#74624f"><path d="m240 232h-40a8 8 0 0 1 0-16h40a8 8 0 0 1 0 16z"/><path d="m288 232h-16a8 8 0 0 1 0-16h16a8 8 0 0 1 0 16z"/><path d="m419.585 216.945a7.815 7.815 0 0 0 -3.585-.945h-96a8 8 0 0 0 0 16h91.677a66.349 66.349 0 0 0 7.908-15.055z"/><path d="m240 168h-40a8 8 0 0 1 0-16h40a8 8 0 0 1 0 16z"/><path d="m288 168h-16a8 8 0 0 1 0-16h16a8 8 0 0 1 0 16z"/><path d="m419.585 167.055a66.349 66.349 0 0 0 -7.908-15.055h-91.677a8 8 0 0 0 0 16h96a7.815 7.815 0 0 0 3.585-.945z"/><path d="m304 200h-96a8 8 0 0 1 0-16h96a8 8 0 0 1 0 16z"/><path d="m352 200h-16a8 8 0 0 1 0-16h16a8 8 0 0 1 0 16z"/><path d="m424 192a73.417 73.417 0 0 0 -.483-8h-39.517a8 8 0 0 0 0 16h39.517a73.417 73.417 0 0 0 .483-8z"/><path d="m328 360h-56a8 8 0 0 1 0-16h56a8 8 0 0 1 0 16z"/><path d="m376 360h-16a8 8 0 0 1 0-16h16a8 8 0 0 1 0 16z"/><path d="m483.585 344.945a7.815 7.815 0 0 0 -3.585-.945h-72a8 8 0 0 0 0 16h67.677a66.349 66.349 0 0 0 7.908-15.055z"/><path d="m320 296h-48a8 8 0 0 1 0-16h48a8 8 0 0 1 0 16z"/><path d="m368 296h-16a8 8 0 0 1 0-16h16a8 8 0 0 1 0 16z"/><path d="m483.585 295.055a66.349 66.349 0 0 0 -7.908-15.055h-75.677a8 8 0 0 0 0 16h80a7.815 7.815 0 0 0 3.585-.945z"/><path d="m360 328h-80a8 8 0 0 1 0-16h80a8 8 0 0 1 0 16z"/><path d="m408 328h-16a8 8 0 0 1 0-16h16a8 8 0 0 1 0 16z"/><path d="m488 320a73.417 73.417 0 0 0 -.483-8h-47.517a8 8 0 0 0 0 16h47.517a73.417 73.417 0 0 0 .483-8z"/></g><path d="m248 88h16v16h-16z" fill="#fbeebd"/><path d="m216 88h16v16h-16z" fill="#fbeebd"/><path d="m280 88h40v16h-40z" fill="#fbeebd"/><ellipse cx="152" cy="192" fill="#e0a981" rx="56" ry="64"/><path d="m152 232a26.564 26.564 0 0 1 -11.414-2.586 8 8 0 0 1 6.828-14.469 10.679 10.679 0 0 0 4.586 1.055c8.672 0 16-10.992 16-24a33.826 33.826 0 0 0 -.617-6.488 8 8 0 0 1 15.719-3.024 50.837 50.837 0 0 1 .898 9.512c0 22.055-14.352 40-32 40z" fill="#be906e"/><path d="m159.992 169.82a7.986 7.986 0 0 1 -3.406-.765 10.679 10.679 0 0 0 -4.586-1.055 8 8 0 0 1 0-16 26.564 26.564 0 0 1 11.414 2.586 8 8 0 0 1 -3.422 15.234z" fill="#be906e"/><path d="m128.75 208a8.012 8.012 0 0 1 -7.852-6.488 50.837 50.837 0 0 1 -.898-9.512 48.628 48.628 0 0 1 3.867-19.18 8 8 0 0 1 14.688 6.36 32.453 32.453 0 0 0 -2.555 12.82 33.826 33.826 0 0 0 .617 6.488 8.008 8.008 0 0 1 -6.344 9.367 8.132 8.132 0 0 1 -1.523.145z" fill="#be906e"/><path d="m432 256h-208v16h244.955c-9.866-9.929-22.776-16-36.955-16z" fill="#836e59"/><ellipse cx="224" cy="320" fill="#e0a981" rx="56" ry="64"/><path d="m224 360a26.564 26.564 0 0 1 -11.414-2.586 8 8 0 0 1 6.828-14.469 10.679 10.679 0 0 0 4.586 1.055c8.672 0 16-10.992 16-24a33.826 33.826 0 0 0 -.617-6.488 8 8 0 0 1 15.719-3.024 50.837 50.837 0 0 1 .898 9.512c0 22.055-14.352 40-32 40z" fill="#be906e"/><path d="m231.992 297.82a7.986 7.986 0 0 1 -3.406-.765 10.679 10.679 0 0 0 -4.586-1.055 8 8 0 0 1 0-16 26.564 26.564 0 0 1 11.414 2.586 8 8 0 0 1 -3.422 15.234z" fill="#be906e"/><path d="m200.75 336a8.012 8.012 0 0 1 -7.852-6.488 50.837 50.837 0 0 1 -.898-9.512 48.628 48.628 0 0 1 3.867-19.18 8 8 0 0 1 14.688 6.36 32.453 32.453 0 0 0 -2.555 12.82 33.826 33.826 0 0 0 .617 6.488 8.008 8.008 0 0 1 -6.344 9.367 8.132 8.132 0 0 1 -1.523.145z" fill="#be906e"/></svg>